<?xml version="1.0" encoding="UTF-8" standalone="no"?>
<!-- Created with Inkscape (http://www.inkscape.org/) -->

<svg
   xmlns:dc="http://purl.org/dc/elements/1.1/"
   xmlns:cc="http://creativecommons.org/ns#"
   xmlns:rdf="http://www.w3.org/1999/02/22-rdf-syntax-ns#"
   xmlns:svg="http://www.w3.org/2000/svg"
   xmlns="http://www.w3.org/2000/svg"
   xmlns:sodipodi="http://sodipodi.sourceforge.net/DTD/sodipodi-0.dtd"
   xmlns:inkscape="http://www.inkscape.org/namespaces/inkscape"
   width="1409.7638"
   height="226.77165"
   viewBox="0 0 373 60"
   version="1.1"
   id="svg8"
   inkscape:version="0.92.4 (5da689c313, 2019-01-14)"
   sodipodi:docname="logo.svg">
  <defs
     id="defs2">
    <inkscape:perspective
       sodipodi:type="inkscape:persp3d"
       inkscape:vp_x="0 : 148.5 : 1"
       inkscape:vp_y="0 : 999.99998 : 0"
       inkscape:vp_z="210 : 148.5 : 1"
       inkscape:persp3d-origin="105 : 98.999998 : 1"
       id="perspective1865" />
  </defs>
  <sodipodi:namedview
     id="base"
     pagecolor="#ffffff"
     bordercolor="#666666"
     borderopacity="1.0"
     inkscape:pageopacity="0.0"
     inkscape:pageshadow="2"
     inkscape:zoom="0.24748737"
     inkscape:cx="-818.4373"
     inkscape:cy="685.77527"
     inkscape:document-units="px"
     inkscape:current-layer="layer1"
     showgrid="false"
     inkscape:window-width="1920"
     inkscape:window-height="1017"
     inkscape:window-x="-8"
     inkscape:window-y="-8"
     inkscape:window-maximized="1"
     units="px" />
  <metadata
     id="metadata5">
    <rdf:RDF>
      <cc:Work
         rdf:about="">
        <dc:format>image/svg+xml</dc:format>
        <dc:type
           rdf:resource="http://purl.org/dc/dcmitype/StillImage" />
        <dc:title></dc:title>
      </cc:Work>
    </rdf:RDF>
  </metadata>
  <g
     inkscape:label="Layer 1"
     inkscape:groupmode="layer"
     id="layer1"
     transform="translate(0,-237)">
    <g
       id="g2644"
       inkscape:export-filename="D:\dev\web\bandingdata\static\logo.png"
       inkscape:export-xdpi="398.21527"
       inkscape:export-ydpi="398.21527"
       transform="matrix(14.851171,0,0,14.851171,-1076.8737,-2396.1026)">
      <g
         transform="translate(0,11.859003)"
         id="g2619">
        <g
           id="g2585"
           transform="translate(0.04724702,12.118504)">
          <g
             id="g2583"
             transform="translate(-0.13214006,-0.06447809)">
            <path
               style="font-style:normal;font-weight:normal;font-size:3.64539528px;line-height:1.25;font-family:sans-serif;letter-spacing:0px;word-spacing:0px;fill:#227ad8;fill-opacity:1;stroke:none;stroke-width:5.11543846"
               d="M 264.91406 21.310547 L 264.91406 172.77539 L 296.48633 172.77539 L 296.48633 160.88672 L 296.88477 160.88672 C 303.34567 170.47817 312.87216 175.27344 325.46094 175.27344 C 339.38186 175.27344 350.50417 170.11124 358.83008 159.78711 C 367.15599 149.46298 371.31836 135.77607 371.31836 118.72461 C 371.31836 103.00529 367.75588 90.615229 360.62891 81.556641 C 353.50193 72.498052 343.34449 67.96875 330.15625 67.96875 C 315.76908 67.96875 304.67782 73.930814 296.88477 85.853516 L 296.48633 85.853516 L 296.48633 21.310547 L 264.91406 21.310547 z M 670.58984 21.310547 L 670.58984 82.15625 L 670.19141 82.15625 C 664.99604 72.698018 655.80347 67.96875 642.61523 67.96875 C 628.69432 67.96875 617.43804 73.064947 608.8457 83.255859 C 600.25337 93.446772 595.95703 107.00168 595.95703 123.91992 C 595.95703 140.10549 599.85343 152.72657 607.64648 161.78516 C 615.43953 170.77714 625.73094 175.27344 638.51953 175.27344 C 652.44045 175.27344 662.99782 169.74626 670.19141 158.68945 L 670.58984 158.68945 L 670.58984 172.77539 L 702.16211 172.77539 L 702.16211 21.310547 L 670.58984 21.310547 z M 737.34375 21.810547 C 732.01517 21.810547 727.65283 23.309313 724.25586 26.306641 C 720.85889 29.303968 719.16016 33.167368 719.16016 37.896484 C 719.16016 42.492386 720.85889 46.388789 724.25586 49.585938 C 727.65283 52.716479 732.01517 54.28125 737.34375 54.28125 C 742.73894 54.28125 747.10128 52.749481 750.43164 49.685547 C 753.82861 46.621612 755.52734 42.692208 755.52734 37.896484 C 755.52734 33.167368 753.82861 29.303968 750.43164 26.306641 C 747.10128 23.309313 742.73894 21.810547 737.34375 21.810547 z M 423.98438 67.96875 C 417.72329 67.96875 410.76335 68.834617 403.10352 70.566406 C 395.51029 72.298195 389.51522 74.297853 385.11914 76.5625 L 385.11914 100.33984 C 396.10934 93.079651 407.69954 89.451172 419.88867 89.451172 C 432.01119 89.451172 438.07227 95.046307 438.07227 106.23633 L 410.29688 109.93164 C 386.78451 112.99558 375.0293 124.45181 375.0293 144.30078 C 375.0293 153.69241 377.85987 161.21924 383.52148 166.88086 C 389.24971 172.47587 397.07552 175.27344 407 175.27344 C 420.45467 175.27344 430.61211 169.54629 437.47266 158.08984 L 437.87305 158.08984 L 437.87305 172.77539 L 467.74609 172.77539 L 467.74609 111.63086 C 467.74609 82.523483 453.15836 67.96875 423.98438 67.96875 z M 550.38477 67.96875 C 535.9976 67.96875 525.04029 74.196784 517.51367 86.652344 L 517.11523 86.652344 L 517.11523 70.466797 L 485.54297 70.466797 L 485.54297 172.77539 L 517.11523 172.77539 L 517.11523 114.42773 C 517.11523 107.96683 518.87997 102.63962 522.41016 98.443359 C 525.94034 94.247101 530.43664 92.148438 535.89844 92.148438 C 547.22167 92.148438 552.88281 100.0752 552.88281 115.92773 L 552.88281 172.77539 L 584.35547 172.77539 L 584.35547 110.13281 C 584.35547 82.024545 573.03124 67.96875 550.38477 67.96875 z M 837.16797 67.96875 C 822.7808 67.96875 811.8235 74.196784 804.29688 86.652344 L 803.89648 86.652344 L 803.89648 70.466797 L 772.32617 70.466797 L 772.32617 172.77539 L 803.89648 172.77539 L 803.89648 114.42773 C 803.89648 107.96683 805.66317 102.63962 809.19336 98.443359 C 812.72354 94.247101 817.21789 92.148438 822.67969 92.148438 C 834.00292 92.148438 839.66602 100.0752 839.66602 115.92773 L 839.66602 172.77539 L 871.13672 172.77539 L 871.13672 110.13281 C 871.13672 82.024545 859.81444 67.96875 837.16797 67.96875 z M 929.19922 67.96875 C 915.2783 67.96875 904.05503 73.064947 895.5293 83.255859 C 887.00357 93.446772 882.74023 107.20164 882.74023 124.51953 C 882.74023 139.97242 886.57063 152.29452 894.23047 161.48633 C 901.8903 170.67813 912.24771 175.27344 925.30273 175.27344 C 939.35687 175.27344 949.98024 169.54629 957.17383 158.08984 L 957.57227 158.08984 L 957.57227 166.18164 C 957.57227 175.83969 954.64269 183.46749 948.78125 189.0625 C 942.91981 194.72412 934.66107 197.55469 924.00391 197.55469 C 913.28014 197.55469 902.65481 194.4892 892.13086 188.36133 L 892.13086 214.93945 C 900.19034 218.86928 911.11464 220.83398 924.90234 220.83398 C 945.75042 220.83398 961.66996 215.60383 972.66016 205.14648 C 983.65036 194.75575 989.14453 180.06901 989.14453 161.08594 L 989.14453 70.466797 L 957.57227 70.466797 L 957.57227 82.357422 L 957.17383 82.357422 C 950.97935 72.765975 941.65478 67.96875 929.19922 67.96875 z M 721.35742 70.466797 L 721.35742 172.77539 L 752.92969 172.77539 L 752.92969 70.466797 L 721.35742 70.466797 z M 317.9668 92.148438 C 324.69413 92.148438 329.85633 94.546073 333.45312 99.341797 C 337.11652 104.07091 338.94727 110.66392 338.94727 119.12305 C 338.94727 129.31396 336.94956 137.20772 332.95312 142.80273 C 329.0233 148.33114 323.46116 151.0957 316.26758 151.0957 C 310.33953 151.0957 305.47825 148.93104 301.68164 144.60156 C 297.88503 140.27209 295.98633 134.81092 295.98633 128.2168 L 295.98633 117.72461 C 295.98633 110.13138 298.05199 103.9713 302.18164 99.242188 C 306.3779 94.513071 311.63911 92.148438 317.9668 92.148438 z M 650.30859 92.148438 C 656.50307 92.148438 661.53131 94.346108 665.39453 98.742188 C 669.25775 103.13827 671.18945 108.6674 671.18945 115.32812 L 671.18945 123.01953 C 671.18945 131.47865 669.15875 138.27358 665.0957 143.40234 C 661.09927 148.5311 655.90406 151.0957 649.50977 151.0957 C 642.78243 151.0957 637.51927 148.66507 633.72266 143.80273 C 629.92604 138.9404 628.0293 132.01151 628.0293 123.01953 C 628.0293 113.42808 629.994 105.9032 633.92383 100.44141 C 637.85366 94.913003 643.31483 92.148438 650.30859 92.148438 z M 937.29102 92.148438 C 943.41888 92.148437 948.38112 94.445114 952.17773 99.041016 C 956.04096 103.57031 957.97266 109.06644 957.97266 115.52734 L 957.97266 123.61914 C 957.97266 131.87844 955.94195 138.53941 951.87891 143.60156 C 947.88247 148.59711 942.61931 151.0957 936.0918 151.0957 C 929.49768 151.0957 924.30247 148.63011 920.50586 143.70117 C 916.70925 138.70563 914.81055 131.94565 914.81055 123.41992 C 914.81055 113.49544 916.8102 105.80164 920.80664 100.33984 C 924.80308 94.878048 930.29725 92.148438 937.29102 92.148438 z M 438.07227 124.32031 L 438.07227 131.21289 C 438.07227 137.47397 436.20657 142.66918 432.47656 146.79883 C 428.74656 150.86187 423.91828 152.89453 417.99023 152.89453 C 413.72737 152.89453 410.3299 151.76074 407.79883 149.49609 C 405.33436 147.16484 404.10352 144.20226 404.10352 140.60547 C 404.10352 132.6792 409.23076 128.04894 419.48828 126.7168 L 438.07227 124.32031 z "
               transform="matrix(0.01781565,0,0,0.01781565,72.595923,153.3863)"
               id="text2577" />
            <path
               style="font-style:normal;font-weight:normal;font-size:3.64539528px;line-height:1.25;font-family:sans-serif;letter-spacing:0px;word-spacing:0px;fill:#ffa01f;fill-opacity:1;stroke:none;stroke-width:5.11543846"
               d="M 1087.6133 21.310547 L 1087.6133 84.654297 L 1087.2148 84.654297 C 1080.9538 73.59749 1070.9283 68.070312 1057.1406 68.070312 C 1043.2197 68.070312 1032.0644 73.164556 1023.6719 83.355469 C 1015.346 93.546381 1011.1816 107.10128 1011.1816 124.01953 C 1011.1816 139.80545 1014.946 152.29452 1022.4727 161.48633 C 1030.0659 170.61152 1040.1554 175.17383 1052.7441 175.17383 C 1068.2636 175.17383 1079.7548 168.58082 1087.2148 155.39258 L 1087.6133 155.39258 L 1087.6133 172.77539 L 1110.793 172.77539 L 1110.793 21.310547 L 1087.6133 21.310547 z M 1262.6836 40.195312 L 1239.5039 46.789062 L 1239.5039 70.466797 L 1222.4199 70.466797 L 1222.4199 88.650391 L 1239.5039 88.650391 L 1239.5039 146.5 C 1239.5039 165.54968 1249.4284 175.07422 1269.2773 175.07422 C 1276.6708 175.07422 1282.6328 173.94238 1287.1621 171.67773 L 1287.1621 153.29297 C 1284.298 155.55762 1280.9005 156.69141 1276.9707 156.69141 C 1271.8419 156.69141 1268.1785 155.39261 1265.9805 152.79492 C 1263.7824 150.19724 1262.6836 145.86595 1262.6836 139.80469 L 1262.6836 88.650391 L 1287.1621 88.650391 L 1287.1621 70.466797 L 1262.6836 70.466797 L 1262.6836 40.195312 z M 1173.6504 68.070312 C 1159.5296 68.070312 1147.0736 71.265858 1136.2832 77.660156 L 1136.2832 97.943359 C 1146.0745 89.550843 1157.0648 85.353516 1169.2539 85.353516 C 1183.1082 85.353516 1190.0352 92.647383 1190.0352 107.23438 L 1159.6621 111.53125 C 1137.4153 114.7284 1126.293 125.98467 1126.293 145.30078 C 1126.293 154.29276 1129.1235 161.51867 1134.7852 166.98047 C 1140.5134 172.44226 1148.4052 175.17383 1158.4629 175.17383 C 1172.1174 175.17383 1182.4748 169.04675 1189.5352 156.79102 L 1189.9355 156.79102 L 1189.9355 172.77539 L 1212.416 172.77539 L 1212.416 106.23633 C 1212.416 80.792351 1199.494 68.070312 1173.6504 68.070312 z M 1339.5273 68.070312 C 1325.4066 68.070312 1312.9505 71.265858 1302.1602 77.660156 L 1302.1602 97.943359 C 1311.9514 89.550843 1322.9417 85.353516 1335.1309 85.353516 C 1348.9852 85.353516 1355.9121 92.647383 1355.9121 107.23438 L 1325.541 111.53125 C 1303.2942 114.7284 1292.1699 125.98467 1292.1699 145.30078 C 1292.1699 154.29276 1295.0005 161.51867 1300.6621 166.98047 C 1306.3903 172.44226 1314.2841 175.17383 1324.3418 175.17383 C 1337.9963 175.17383 1348.3537 169.04675 1355.4141 156.79102 L 1355.8125 156.79102 L 1355.8125 172.77539 L 1378.293 172.77539 L 1378.293 106.23633 C 1378.293 80.792351 1365.371 68.070312 1339.5273 68.070312 z M 1062.7363 86.552734 C 1070.0631 86.552734 1076.0912 89.084332 1080.8203 94.146484 C 1085.5494 99.208637 1087.9141 105.36871 1087.9141 112.62891 L 1087.9141 126.01758 C 1087.9141 134.87634 1085.4485 142.23622 1080.5195 148.09766 C 1075.5906 153.89249 1069.1645 156.79102 1061.2383 156.79102 C 1053.1788 156.79102 1046.7508 153.79348 1041.9551 147.79883 C 1037.226 141.73757 1034.8613 133.51183 1034.8613 123.12109 C 1034.8613 111.66464 1037.325 102.70505 1042.2539 96.244141 C 1047.2495 89.783235 1054.0774 86.552734 1062.7363 86.552734 z M 1190.0352 122.52148 L 1190.0352 131.41211 C 1190.0352 138.93873 1187.7035 145.19977 1183.041 150.19531 C 1178.4451 155.12425 1172.617 157.58984 1165.5566 157.58984 C 1160.3613 157.58984 1156.1989 156.22504 1153.0684 153.49414 C 1150.0044 150.69664 1148.4727 147.13221 1148.4727 142.80273 C 1148.4727 136.87469 1150.1384 132.74532 1153.4688 130.41406 C 1156.8657 128.0162 1161.894 126.38347 1168.5547 125.51758 L 1190.0352 122.52148 z M 1355.9121 122.52148 L 1355.9121 131.41211 C 1355.9121 138.93873 1353.5824 145.19977 1348.9199 150.19531 C 1344.324 155.12425 1338.4959 157.58984 1331.4355 157.58984 C 1326.2402 157.58984 1322.0759 156.22504 1318.9453 153.49414 C 1315.8814 150.69664 1314.3496 147.13221 1314.3496 142.80273 C 1314.3496 136.87469 1316.0153 132.74532 1319.3457 130.41406 C 1322.7427 128.0162 1327.7709 126.38347 1334.4316 125.51758 L 1355.9121 122.52148 z "
               transform="matrix(0.01781565,0,0,0.01781565,72.595923,153.3863)"
               id="text2581" />
          </g>
        </g>
        <rect
           y="165.54753"
           x="73.270744"
           height="0.58465207"
           width="0.58465207"
           id="rect2587"
           style="fill:#3286df;fill-opacity:1;stroke:none;stroke-width:0.17999999;stroke-linecap:round;stroke-miterlimit:4;stroke-dasharray:none;stroke-opacity:1" />
        <rect
           style="fill:#3286df;fill-opacity:1;stroke:none;stroke-width:0.17999999;stroke-linecap:round;stroke-miterlimit:4;stroke-dasharray:none;stroke-opacity:1"
           id="rect2589"
           width="0.58465207"
           height="0.58465207"
           x="73.270744"
           y="166.41336" />
        <rect
           y="167.27921"
           x="73.270744"
           height="0.58465207"
           width="0.58465207"
           id="rect2591"
           style="fill:#3286df;fill-opacity:1;stroke:none;stroke-width:0.17999999;stroke-linecap:round;stroke-miterlimit:4;stroke-dasharray:none;stroke-opacity:1" />
        <rect
           style="fill:#3286df;fill-opacity:1;stroke:none;stroke-width:0.17999999;stroke-linecap:round;stroke-miterlimit:4;stroke-dasharray:none;stroke-opacity:1"
           id="rect2593"
           width="0.58465207"
           height="0.58465207"
           x="73.270744"
           y="168.14505" />
        <rect
           inkscape:transform-center-x="-0.84495544"
           transform="rotate(-90)"
           y="74.136574"
           x="-166.13219"
           height="0.58465207"
           width="0.58465207"
           id="rect2595"
           style="fill:#dedede;fill-opacity:1;stroke:none;stroke-width:0.17999999;stroke-linecap:round;stroke-miterlimit:4;stroke-dasharray:none;stroke-opacity:1" />
        <rect
           inkscape:transform-center-x="-1.7108002"
           transform="rotate(-90)"
           style="fill:#dedede;fill-opacity:1;stroke:none;stroke-width:0.17999999;stroke-linecap:round;stroke-miterlimit:4;stroke-dasharray:none;stroke-opacity:1"
           id="rect2597"
           width="0.58465207"
           height="0.58465207"
           x="-166.13219"
           y="75.002419" />
        <rect
           inkscape:transform-center-x="-2.5766449"
           transform="rotate(-90)"
           y="75.868263"
           x="-166.13219"
           height="0.58465207"
           width="0.58465207"
           id="rect2599"
           style="fill:#ffa01f;fill-opacity:1;stroke:none;stroke-width:0.17999999;stroke-linecap:round;stroke-miterlimit:4;stroke-dasharray:none;stroke-opacity:1" />
        <rect
           style="fill:#dedede;fill-opacity:1;stroke:none;stroke-width:0.17999999;stroke-linecap:round;stroke-miterlimit:4;stroke-dasharray:none;stroke-opacity:1"
           id="rect2601"
           width="0.58465207"
           height="0.58465207"
           x="-166.99802"
           y="74.136574"
           transform="rotate(-90)"
           inkscape:transform-center-x="-0.84495544" />
        <rect
           y="75.002419"
           x="-166.99802"
           height="0.58465207"
           width="0.58465207"
           id="rect2603"
           style="fill:#dedede;fill-opacity:1;stroke:none;stroke-width:0.17999999;stroke-linecap:round;stroke-miterlimit:4;stroke-dasharray:none;stroke-opacity:1"
           transform="rotate(-90)"
           inkscape:transform-center-x="-1.7108002" />
        <rect
           style="fill:#ffa01f;fill-opacity:1;stroke:none;stroke-width:0.17999999;stroke-linecap:round;stroke-miterlimit:4;stroke-dasharray:none;stroke-opacity:1"
           id="rect2605"
           width="0.58465207"
           height="0.58465207"
           x="-166.99802"
           y="75.868263"
           transform="rotate(-90)"
           inkscape:transform-center-x="-2.5766449" />
        <rect
           inkscape:transform-center-x="-0.84495544"
           transform="rotate(-90)"
           y="74.136574"
           x="-167.86386"
           height="0.58465207"
           width="0.58465207"
           id="rect2607"
           style="fill:#3286df;fill-opacity:1;stroke:none;stroke-width:0.17999999;stroke-linecap:round;stroke-miterlimit:4;stroke-dasharray:none;stroke-opacity:1" />
        <rect
           inkscape:transform-center-x="-1.7108002"
           transform="rotate(-90)"
           style="fill:#ffa01f;fill-opacity:1;stroke:none;stroke-width:0.17999999;stroke-linecap:round;stroke-miterlimit:4;stroke-dasharray:none;stroke-opacity:1"
           id="rect2609"
           width="0.58465207"
           height="0.58465207"
           x="-167.86386"
           y="75.002419" />
        <rect
           inkscape:transform-center-x="-2.5766449"
           transform="rotate(-90)"
           y="75.868263"
           x="-167.86386"
           height="0.58465207"
           width="0.58465207"
           id="rect2611"
           style="fill:#ffa01f;fill-opacity:1;stroke:none;stroke-width:0.17999999;stroke-linecap:round;stroke-miterlimit:4;stroke-dasharray:none;stroke-opacity:1" />
        <rect
           style="fill:#3286df;fill-opacity:1;stroke:none;stroke-width:0.17999999;stroke-linecap:round;stroke-miterlimit:4;stroke-dasharray:none;stroke-opacity:1"
           id="rect2613"
           width="0.58465207"
           height="0.58465207"
           x="-168.72971"
           y="74.136574"
           transform="rotate(-90)"
           inkscape:transform-center-x="-0.84495544" />
        <rect
           y="75.002419"
           x="-168.72971"
           height="0.58465207"
           width="0.58465207"
           id="rect2615"
           style="fill:#ffa01f;fill-opacity:1;stroke:none;stroke-width:0.17999999;stroke-linecap:round;stroke-miterlimit:4;stroke-dasharray:none;stroke-opacity:1"
           transform="rotate(-90)"
           inkscape:transform-center-x="-1.7108002" />
        <rect
           style="fill:#ffa01f;fill-opacity:1;stroke:none;stroke-width:0.17999999;stroke-linecap:round;stroke-miterlimit:4;stroke-dasharray:none;stroke-opacity:1"
           id="rect2617"
           width="0.58465207"
           height="0.58465207"
           x="-168.72971"
           y="75.868263"
           transform="rotate(-90)"
           inkscape:transform-center-x="-2.5766449" />
      </g>
    </g>
  </g>
</svg>
